<svg xmlns="http://www.w3.org/2000/svg" xmlns:xlink="http://www.w3.org/1999/xlink" viewBox="0 0 128 128"><defs><path id="a" d="M54.121 52.878a3.008 3.008 0 0 0-2.556-.846 2.994 2.994 0 0 0-2.205 1.542l-14.598 27a2.96 2.96 0 0 0-.18.4 9.69 9.69 0 0 0 2.247 10.133 9.693 9.693 0 0 0 6.846 2.83c1.107 0 2.22-.193 3.288-.583.135-.048.267-.108.396-.174l27.063-14.538a2.995 2.995 0 0 0 1.545-2.205 2.999 2.999 0 0 0-.846-2.559l-21-21zm-9.384 34.9a3.665 3.665 0 0 1-3.666-.913 3.673 3.673 0 0 1-.909-3.66l12.561-23.238 15.303 15.3-23.289 12.51zM79 46c1.656 0 3 1.344 3 3 0 1.659 1.341 3 3 3s3-1.341 3-3c0-1.656 1.344-3 3-3 1.659 0 3-1.341 3-3s-1.341-3-3-3c-1.656 0-3-1.344-3-3 0-1.659-1.341-3-3-3s-3 1.341-3 3c0 1.656-1.344 3-3 3-1.659 0-3 1.341-3 3s1.341 3 3 3m-42 0c1.656 0 3 1.344 3 3 0 1.659 1.341 3 3 3s3-1.341 3-3c0-1.656 1.344-3 3-3 1.659 0 3-1.341 3-3s-1.341-3-3-3c-1.656 0-3-1.344-3-3 0-1.659-1.341-3-3-3s-3 1.341-3 3c0 1.656-1.344 3-3 3-1.659 0-3 1.341-3 3s1.341 3 3 3m54 36c-1.656 0-3-1.344-3-3 0-1.659-1.341-3-3-3s-3 1.341-3 3c0 1.656-1.344 3-3 3-1.659 0-3 1.341-3 3s1.341 3 3 3c1.656 0 3 1.344 3 3 0 1.659 1.341 3 3 3s3-1.341 3-3c0-1.656 1.344-3 3-3 1.659 0 3-1.341 3-3s-1.341-3-3-3M70 61c.768 0 1.536-.294 2.121-.879l3-3a2.997 2.997 0 0 0 0-4.242 2.997 2.997 0 0 0-4.242 0l-3 3a2.997 2.997 0 0 0 0 4.242A2.992 2.992 0 0 0 70 61m20.05.155l-9 3a2.999 2.999 0 1 0 1.9 5.688l9-3a2.998 2.998 0 1 0-1.9-5.688m-30-12.31a3.003 3.003 0 0 0 3.795-1.896l3-9a2.998 2.998 0 0 0-1.895-3.792 2.991 2.991 0 0 0-3.795 1.893l-3 9a2.999 2.999 0 0 0 1.896 3.795"/></defs><g fill="none" fill-rule="evenodd"><path d="M0 0h128v128H0z"/><use fill="#5C6AC4" xlink:href="#a"/></g></svg>